<svg role="img" viewBox="0 0 24 24" xmlns="http://www.w3.org/2000/svg" fill="#333">
  <title>Spotify</title>
  <path d="M12 0C5.4 0 0 5.4 0 12s5.4 12 12 12 12-5.4 12-12S18.66 0 12 0zm5.521 17.34c-.24.359-.66.48-1.021.24-2.82-1.74-6.36-2.101-10.561-1.141-.42.122-.78-.18-.9-.54-.12-.42.18-.78.54-.9 4.56-1.021 8.52-.6 11.64 1.32.42.18.48.66.3 1.02zm1.44-3.3c-.3.42-.84.6-1.26.3-3.24-1.98-8.16-2.58-11.94-1.44-.48.12-1.02-.12-1.14-.6-.12-.48.12-1.02.6-1.14 4.2-1.26 9.48-.6 13.08 1.68.42.18.54.78.24 1.2zm.12-3.36C15.24 8.4 8.4 8.16 5.16 9.3c-.6.18-1.2-.18-1.38-.72-.18-.6.18-1.2.72-1.38 3.96-1.26 11.52-1.02 15.96 1.62.54.3.72 1.02.42 1.56-.3.42-1.02.54-1.56.24z"/>
</svg>